<?xml version="1.0" standalone="no"?>
<!DOCTYPE svg PUBLIC "-//W3C//DTD SVG 20010904//EN"
 "http://www.w3.org/TR/2001/REC-SVG-20010904/DTD/svg10.dtd">
<svg version="1.0" xmlns="http://www.w3.org/2000/svg"
 width="512.000000pt" height="512.000000pt" viewBox="0 0 512.000000 512.000000"
 preserveAspectRatio="xMidYMid meet">

<g transform="translate(0.000000,512.000000) scale(0.100000,-0.100000)"
fill="#000000" stroke="none">
<path d="M2360 5110 c-8 -5 -36 -10 -62 -10 -26 0 -69 -4 -95 -9 -26 -5 -79
-14 -118 -21 -357 -62 -743 -231 -1047 -458 -362 -271 -649 -633 -823 -1037
-17 -39 -29 -69 -46 -110 -21 -52 -69 -208 -87 -285 -35 -147 -41 -176 -64
-350 -12 -91 -15 -435 -4 -510 23 -164 29 -202 42 -265 25 -128 90 -354 114
-397 6 -10 10 -22 10 -28 0 -14 53 -129 110 -241 266 -519 718 -942 1253
-1173 20 -9 52 -23 71 -31 46 -20 204 -72 296 -96 118 -31 206 -48 380 -71 91
-12 435 -15 510 -4 164 23 202 29 265 42 688 135 1307 568 1678 1176 61 100
144 265 188 376 5 12 13 32 18 45 21 49 70 207 89 287 35 147 41 176 64 350
12 91 15 435 4 510 -23 164 -29 202 -42 265 -25 128 -90 354 -114 397 -6 10
-10 22 -10 28 0 14 -53 129 -110 241 -266 519 -718 942 -1252 1173 -21 9 -53
23 -72 31 -46 20 -205 72 -296 96 -116 30 -216 49 -410 75 -85 11 -424 15
-440 4z m856 -2345 c339 -594 619 -1088 622 -1097 4 -17 -60 -18 -1253 -18
-1237 0 -1257 0 -1252 19 4 19 1219 2151 1240 2179 6 7 14 9 18 5 4 -4 285
-494 625 -1088z"/>
</g>
</svg>
